<?xml version="1.0" encoding="UTF-8"?>
<!DOCTYPE svg PUBLIC "-//W3C//DTD SVG 1.1//EN" "http://www.w3.org/Graphics/SVG/1.1/DTD/svg11.dtd">
<svg xmlns="http://www.w3.org/2000/svg" version="1.1" width="312px" height="187px" style="shape-rendering:geometricPrecision; text-rendering:geometricPrecision; image-rendering:optimizeQuality; fill-rule:evenodd; clip-rule:evenodd" xmlns:xlink="http://www.w3.org/1999/xlink">
<g><path style="opacity:1" fill="#fffefd" d="M -0.5,-0.5 C 21.5,-0.5 43.5,-0.5 65.5,-0.5C 78.0195,21.3319 91.6862,42.3319 106.5,62.5C 96.1939,43.2232 84.8606,24.5566 72.5,6.5C 72.6667,6.16667 72.8333,5.83333 73,5.5C 80.1118,11.7915 87.6118,17.4582 95.5,22.5C 107.397,32.8078 119.397,43.1411 131.5,53.5C 125.048,58.566 118.381,63.3994 111.5,68C 115.215,66.8898 118.715,65.0565 122,62.5C 126.408,66.7425 131.241,70.4092 136.5,73.5C 140.889,66.7161 144.223,59.3828 146.5,51.5C 148.129,49.1423 149.295,46.4757 150,43.5C 154.748,40.209 159.581,37.0423 164.5,34C 165.711,33.1072 165.711,32.2739 164.5,31.5C 132.831,20.4812 101.164,9.81454 69.5,-0.5C 150.167,-0.5 230.833,-0.5 311.5,-0.5C 311.5,61.8333 311.5,124.167 311.5,186.5C 207.5,186.5 103.5,186.5 -0.5,186.5C -0.5,124.167 -0.5,61.8333 -0.5,-0.5 Z"/></g>
<g><path style="opacity:1" fill="#fa8c3a" d="M 65.5,-0.5 C 66.8333,-0.5 68.1667,-0.5 69.5,-0.5C 101.164,9.81454 132.831,20.4812 164.5,31.5C 165.711,32.2739 165.711,33.1072 164.5,34C 159.581,37.0423 154.748,40.209 150,43.5C 149.295,46.4757 148.129,49.1423 146.5,51.5C 146.5,51.1667 146.5,50.8333 146.5,50.5C 147.201,46.2003 145.534,43.5336 141.5,42.5C 140.395,41.3995 139.062,40.7329 137.5,40.5C 136.71,39.5987 135.71,38.9321 134.5,38.5C 132.5,37.5 130.5,36.5 128.5,35.5C 127.833,35.1667 127.167,34.8333 126.5,34.5C 124.819,32.9925 122.819,31.9925 120.5,31.5C 119.71,30.5987 118.71,29.9321 117.5,29.5C 110.337,25.7529 103.337,21.7529 96.5,17.5C 95.8333,17.1667 95.1667,16.8333 94.5,16.5C 92.9505,15.5592 91.2838,14.8925 89.5,14.5C 89.0269,13.0937 88.0269,12.427 86.5,12.5C 85.1252,10.9302 83.4585,10.0969 81.5,10C 82.8463,11.6692 84.513,12.8358 86.5,13.5C 87.5,15.1667 88.8333,16.5 90.5,17.5C 91.6049,18.6005 92.9382,19.2671 94.5,19.5C 95.1098,20.391 95.4431,21.391 95.5,22.5C 87.6118,17.4582 80.1118,11.7915 73,5.5C 72.8333,5.83333 72.6667,6.16667 72.5,6.5C 84.8606,24.5566 96.1939,43.2232 106.5,62.5C 91.6862,42.3319 78.0195,21.3319 65.5,-0.5 Z"/></g>
<g><path style="opacity:1" fill="#fffaf8" d="M 80.5,6.5 C 80.56,5.95691 80.8933,5.62358 81.5,5.5C 108.57,14.5787 135.57,23.7454 162.5,33C 157.5,36.1667 152.5,39.3333 147.5,42.5C 125.617,29.7243 103.284,17.7243 80.5,6.5 Z"/></g>
<g><path style="opacity:1" fill="#ffe3ce" d="M 86.5,12.5 C 86.5,12.8333 86.5,13.1667 86.5,13.5C 84.513,12.8358 82.8463,11.6692 81.5,10C 83.4585,10.0969 85.1252,10.9302 86.5,12.5 Z"/></g>
<g><path style="opacity:1" fill="#7199c3" d="M 86.5,12.5 C 88.0269,12.427 89.0269,13.0937 89.5,14.5C 90.1098,15.391 90.4431,16.391 90.5,17.5C 88.8333,16.5 87.5,15.1667 86.5,13.5C 86.5,13.1667 86.5,12.8333 86.5,12.5 Z"/></g>
<g><path style="opacity:1" fill="#fdf5ef" d="M 89.5,14.5 C 91.2838,14.8925 92.9505,15.5592 94.5,16.5C 94.5,17.5 94.5,18.5 94.5,19.5C 92.9382,19.2671 91.6049,18.6005 90.5,17.5C 90.4431,16.391 90.1098,15.391 89.5,14.5 Z"/></g>
<g><path style="opacity:1" fill="#7297c2" d="M 94.5,16.5 C 95.1667,16.8333 95.8333,17.1667 96.5,17.5C 97.6298,19.3146 98.2964,21.3146 98.5,23.5C 97.391,23.4431 96.391,23.1098 95.5,22.5C 95.4431,21.391 95.1098,20.391 94.5,19.5C 94.5,18.5 94.5,17.5 94.5,16.5 Z"/></g>
<g><path style="opacity:1" fill="#e1e5ed" d="M 96.5,17.5 C 103.337,21.7529 110.337,25.7529 117.5,29.5C 119.108,32.9909 120.108,36.6576 120.5,40.5C 119.128,39.4884 117.795,38.4884 116.5,37.5C 116.736,34.7743 115.903,32.441 114,30.5C 113.51,31.7932 113.343,33.1266 113.5,34.5C 111.589,33.925 109.922,32.925 108.5,31.5C 108.496,29.1579 107.663,27.1579 106,25.5C 105.517,26.448 105.351,27.448 105.5,28.5C 102.991,27.0787 100.657,25.4121 98.5,23.5C 98.2964,21.3146 97.6298,19.3146 96.5,17.5 Z"/></g>
<g><path style="opacity:1" fill="#4d8dc7" d="M 108.5,31.5 C 107.167,30.8333 106.167,29.8333 105.5,28.5C 105.351,27.448 105.517,26.448 106,25.5C 107.663,27.1579 108.496,29.1579 108.5,31.5 Z"/></g>
<g><path style="opacity:1" fill="#518fc8" d="M 116.5,37.5 C 115.167,36.8333 114.167,35.8333 113.5,34.5C 113.343,33.1266 113.51,31.7932 114,30.5C 115.903,32.441 116.736,34.7743 116.5,37.5 Z"/></g>
<g><path style="opacity:1" fill="#f7f5f5" d="M 120.5,31.5 C 122.819,31.9925 124.819,32.9925 126.5,34.5C 125.903,34.7352 125.57,35.2352 125.5,36C 127.767,39.4851 129.1,43.3185 129.5,47.5C 127.246,46.8763 125.579,45.543 124.5,43.5C 123.167,39.5 121.833,35.5 120.5,31.5 Z"/></g>
<g><path style="opacity:1" fill="#6a97c7" d="M 117.5,29.5 C 118.71,29.9321 119.71,30.5987 120.5,31.5C 121.833,35.5 123.167,39.5 124.5,43.5C 122.596,43.2624 121.262,42.2624 120.5,40.5C 120.108,36.6576 119.108,32.9909 117.5,29.5 Z"/></g>
<g><path style="opacity:1" fill="#f8f8f8" d="M 128.5,35.5 C 130.5,36.5 132.5,37.5 134.5,38.5C 136.679,45.5474 139.012,52.5474 141.5,59.5C 140.349,62.4744 139.183,65.4744 138,68.5C 137,63.1667 136,57.8333 135,52.5C 134.005,51.9341 133.172,51.2674 132.5,50.5C 131.461,45.422 130.128,40.422 128.5,35.5 Z"/></g>
<g><path style="opacity:1" fill="#5d94c8" d="M 126.5,34.5 C 127.167,34.8333 127.833,35.1667 128.5,35.5C 130.128,40.422 131.461,45.422 132.5,50.5C 131.167,49.8333 130.167,48.8333 129.5,47.5C 129.1,43.3185 127.767,39.4851 125.5,36C 125.57,35.2352 125.903,34.7352 126.5,34.5 Z"/></g>
<g><path style="opacity:1" fill="#f1f1f3" d="M 137.5,40.5 C 139.062,40.7329 140.395,41.3995 141.5,42.5C 142.783,44.6064 143.616,46.9398 144,49.5C 144.671,50.2524 145.504,50.5858 146.5,50.5C 146.5,50.8333 146.5,51.1667 146.5,51.5C 145.761,51.369 145.094,51.5357 144.5,52C 143.915,53.3024 143.249,54.469 142.5,55.5C 139.977,50.7872 138.311,45.7872 137.5,40.5 Z"/></g>
<g><path style="opacity:1" fill="#7da1ca" d="M 141.5,42.5 C 145.534,43.5336 147.201,46.2003 146.5,50.5C 145.504,50.5858 144.671,50.2524 144,49.5C 143.616,46.9398 142.783,44.6064 141.5,42.5 Z"/></g>
<g><path style="opacity:1" fill="#5990c7" d="M 134.5,38.5 C 135.71,38.9321 136.71,39.5987 137.5,40.5C 138.311,45.7872 139.977,50.7872 142.5,55.5C 142.768,57.099 142.434,58.4324 141.5,59.5C 139.012,52.5474 136.679,45.5474 134.5,38.5 Z"/></g>
<g><path style="opacity:1" fill="#fa9245" d="M 95.5,22.5 C 96.391,23.1098 97.391,23.4431 98.5,23.5C 100.657,25.4121 102.991,27.0787 105.5,28.5C 106.167,29.8333 107.167,30.8333 108.5,31.5C 109.922,32.925 111.589,33.925 113.5,34.5C 114.167,35.8333 115.167,36.8333 116.5,37.5C 117.795,38.4884 119.128,39.4884 120.5,40.5C 121.262,42.2624 122.596,43.2624 124.5,43.5C 125.579,45.543 127.246,46.8763 129.5,47.5C 130.167,48.8333 131.167,49.8333 132.5,50.5C 133.172,51.2674 134.005,51.9341 135,52.5C 136,57.8333 137,63.1667 138,68.5C 139.183,65.4744 140.349,62.4744 141.5,59.5C 142.434,58.4324 142.768,57.099 142.5,55.5C 143.249,54.469 143.915,53.3024 144.5,52C 145.094,51.5357 145.761,51.369 146.5,51.5C 144.223,59.3828 140.889,66.7161 136.5,73.5C 131.241,70.4092 126.408,66.7425 122,62.5C 118.715,65.0565 115.215,66.8898 111.5,68C 118.381,63.3994 125.048,58.566 131.5,53.5C 119.397,43.1411 107.397,32.8078 95.5,22.5 Z"/></g>
<g><path style="opacity:1" fill="#fff6f0" d="M 132.5,55.5 C 134.484,60.0961 135.317,65.0961 135,70.5C 131.985,67.3172 128.818,64.3172 125.5,61.5C 127.853,59.4773 130.186,57.4773 132.5,55.5 Z"/></g>
<g><path style="opacity:1" fill="#f98c3a" d="M 118.5,90.5 C 116.772,88.7745 114.772,87.4411 112.5,86.5C 110.782,83.7162 108.616,81.3829 106,79.5C 93.8358,83.6633 81.8358,87.9966 70,92.5C 67.9366,95.0538 66.1033,97.7204 64.5,100.5C 65.3333,103.833 66.1667,107.167 67,110.5C 71.7795,113.021 76.4462,115.688 81,118.5C 81.3028,122.529 81.8028,126.529 82.5,130.5C 82.1243,132.383 81.1243,133.883 79.5,135C 74.3771,138.044 69.0437,140.711 63.5,143C 62.6433,143.689 61.9767,144.522 61.5,145.5C 63.0732,149.338 65.5732,152.338 69,154.5C 75.4411,153.362 80.9411,150.529 85.5,146C 86.8333,145.333 88.1667,145.333 89.5,146C 94.5492,151.927 99.7158,157.761 105,163.5C 120.051,149.172 126.218,131.839 123.5,111.5C 123.12,109.302 123.787,107.635 125.5,106.5C 131.178,141.645 117.512,165.812 84.5,179C 58.0294,186.065 35.8627,179.232 18,158.5C 3.38091,136.784 1.71424,114.118 13,90.5C 32.135,62.2332 57.9684,53.7332 90.5,65C 102.9,70.2375 112.233,78.7375 118.5,90.5 Z"/></g>
<g><path style="opacity:1" fill="#fbfbfb" d="M 62.5,63.5 C 54.8933,69.769 47.56,76.4356 40.5,83.5C 40.5,80.1667 40.5,76.8333 40.5,73.5C 44.5066,70.8181 48.1733,67.8181 51.5,64.5C 55.1185,63.7564 58.7852,63.423 62.5,63.5 Z"/></g>
<g><path style="opacity:1" fill="#5f96cc" d="M 65.5,63.5 C 57.9152,70.9615 49.9152,77.9615 41.5,84.5C 40.8333,84.5 40.5,84.1667 40.5,83.5C 47.56,76.4356 54.8933,69.769 62.5,63.5C 63.6522,62.375 64.6522,62.375 65.5,63.5 Z"/></g>
<g><path style="opacity:1" fill="#f9fafc" d="M 65.5,63.5 C 68.8333,63.5 72.1667,63.5 75.5,63.5C 65.8929,71.4386 56.8929,80.1053 48.5,89.5C 45.9528,88.0664 43.6195,86.3998 41.5,84.5C 49.9152,77.9615 57.9152,70.9615 65.5,63.5 Z"/></g>
<g><path style="opacity:1" fill="#fca462" d="M 106.5,62.5 C 108.416,63.6653 109.249,65.332 109,67.5C 107.628,66.0899 106.795,64.4233 106.5,62.5 Z"/></g>
<g><path style="opacity:1" fill="#5b91c5" d="M 51.5,64.5 C 48.1733,67.8181 44.5066,70.8181 40.5,73.5C 39.8333,73.5 39.5,73.1667 39.5,72.5C 41.5,71.1667 43.1667,69.5 44.5,67.5C 46.2099,65.8004 48.2099,64.4671 50.5,63.5C 51.1067,63.6236 51.44,63.9569 51.5,64.5 Z"/></g>
<g><path style="opacity:1" fill="#f9fafc" d="M 77.5,64.5 C 80.2666,64.8583 82.9333,65.525 85.5,66.5C 73.2281,76.7667 61.2281,87.4333 49.5,98.5C 51.1003,95.2001 50.767,92.2001 48.5,89.5C 58.442,81.5632 68.1087,73.2299 77.5,64.5 Z"/></g>
<g><path style="opacity:1" fill="#5e96cb" d="M 77.5,64.5 C 68.1087,73.2299 58.442,81.5632 48.5,89.5C 56.8929,80.1053 65.8929,71.4386 75.5,63.5C 76.9245,61.9689 77.5912,62.3023 77.5,64.5 Z"/></g>
<g><path style="opacity:1" fill="#fafaf9" d="M 87.5,67.5 C 89.5,68.1667 91.5,68.8333 93.5,69.5C 87.823,74.1777 82.823,79.511 78.5,85.5C 75.9174,86.2239 73.2507,87.0572 70.5,88C 68.0374,91.4646 65.2041,94.6312 62,97.5C 61.51,98.7932 61.3433,100.127 61.5,101.5C 57.7978,103.024 54.4645,105.19 51.5,108C 47.2978,112.37 42.9645,116.537 38.5,120.5C 39.9153,114.677 43.0819,110.01 48,106.5C 48.662,104.187 49.162,101.854 49.5,99.5C 62.4403,89.2321 75.107,78.5655 87.5,67.5 Z"/></g>
<g><path style="opacity:1" fill="#f6ece6" d="M 44.5,67.5 C 43.1667,69.5 41.5,71.1667 39.5,72.5C 38.7109,72.2172 38.0442,71.7172 37.5,71C 39.5766,69.295 41.91,68.1283 44.5,67.5 Z"/></g>
<g><path style="opacity:1" fill="#6097cc" d="M 87.5,67.5 C 75.107,78.5655 62.4403,89.2321 49.5,99.5C 49.5,99.1667 49.5,98.8333 49.5,98.5C 61.2281,87.4333 73.2281,76.7667 85.5,66.5C 86.9245,64.9689 87.5912,65.3023 87.5,67.5 Z"/></g>
<g><path style="opacity:1" fill="#6096cb" d="M 93.5,69.5 C 94.4916,69.3284 95.1583,69.6618 95.5,70.5C 91.1667,75.5 86.5,80.1667 81.5,84.5C 80.609,85.1098 79.609,85.4431 78.5,85.5C 82.823,79.511 87.823,74.1777 93.5,69.5 Z"/></g>
<g><path style="opacity:1" fill="#f7f6f6" d="M 95.5,70.5 C 97.1667,71.8333 98.8333,73.1667 100.5,74.5C 99.1667,76.1667 97.8333,77.8333 96.5,79.5C 91.6708,81.4007 86.6708,83.0674 81.5,84.5C 86.5,80.1667 91.1667,75.5 95.5,70.5 Z"/></g>
<g><path style="opacity:1" fill="#fffcfa" d="M 33.5,72.5 C 35.0174,72.5106 36.1841,73.1772 37,74.5C 37.2315,78.5548 37.7315,82.5548 38.5,86.5C 40.8333,88 43.1667,89.5 45.5,91C 46.5742,91.7387 47.2409,92.7387 47.5,94C 47.4625,101.281 44.6291,107.115 39,111.5C 34.1786,119.946 31.8453,128.946 32,138.5C 37.5906,142.086 42.5906,146.42 47,151.5C 47.6667,154.167 47.6667,156.833 47,159.5C 44.9361,160.591 42.7695,160.758 40.5,160C 37.5372,158.039 34.8706,155.706 32.5,153C 27.74,151.814 23.4066,149.981 19.5,147.5C 19.4596,138.453 22.293,130.453 28,123.5C 30.0097,114.688 26.5097,109.855 17.5,109C 14.5438,108.038 12.2105,106.372 10.5,104C 15.3128,91.3629 22.9795,80.8629 33.5,72.5 Z"/></g>
<g><path style="opacity:1" fill="#5b8bbe" d="M 100.5,74.5 C 101.552,74.3505 102.552,74.5172 103.5,75C 101.789,77.5193 99.4552,79.0193 96.5,79.5C 97.8333,77.8333 99.1667,76.1667 100.5,74.5 Z"/></g>
<g><path style="opacity:1" fill="#fefcfc" d="M 112.5,86.5 C 107.961,87.2645 103.294,88.0979 98.5,89C 96.0978,96.8623 98.7645,102.196 106.5,105C 110.819,105.988 115.153,106.488 119.5,106.5C 119.227,108.451 119.893,109.951 121.5,111C 120.182,113.429 118.516,115.596 116.5,117.5C 116.833,118.167 117.167,118.833 117.5,119.5C 115.132,120.577 113.465,122.244 112.5,124.5C 111.417,124.539 110.417,124.873 109.5,125.5C 108.673,127.162 107.507,128.495 106,129.5C 104.94,129.746 103.773,129.746 102.5,129.5C 100.003,129.935 98.8367,131.269 99,133.5C 99.8525,131.875 100.853,131.542 102,132.5C 105.963,132.223 109.129,130.556 111.5,127.5C 117.916,124.01 121.916,118.676 123.5,111.5C 126.218,131.839 120.051,149.172 105,163.5C 99.7158,157.761 94.5492,151.927 89.5,146C 88.1667,145.333 86.8333,145.333 85.5,146C 80.9411,150.529 75.4411,153.362 69,154.5C 65.5732,152.338 63.0732,149.338 61.5,145.5C 61.9767,144.522 62.6433,143.689 63.5,143C 69.0437,140.711 74.3771,138.044 79.5,135C 81.1243,133.883 82.1243,132.383 82.5,130.5C 81.8028,126.529 81.3028,122.529 81,118.5C 76.4462,115.688 71.7795,113.021 67,110.5C 66.1667,107.167 65.3333,103.833 64.5,100.5C 66.1033,97.7204 67.9366,95.0538 70,92.5C 81.8358,87.9966 93.8358,83.6633 106,79.5C 108.616,81.3829 110.782,83.7162 112.5,86.5 Z"/></g>
<g><path style="opacity:1" fill="#6b9ecf" d="M 125.5,106.5 C 123.787,107.635 123.12,109.302 123.5,111.5C 121.916,118.676 117.916,124.01 111.5,127.5C 111.557,126.391 111.89,125.391 112.5,124.5C 113.465,122.244 115.132,120.577 117.5,119.5C 117.167,118.833 116.833,118.167 116.5,117.5C 118.516,115.596 120.182,113.429 121.5,111C 119.893,109.951 119.227,108.451 119.5,106.5C 115.153,106.488 110.819,105.988 106.5,105C 98.7645,102.196 96.0978,96.8623 98.5,89C 103.294,88.0979 107.961,87.2645 112.5,86.5C 114.772,87.4411 116.772,88.7745 118.5,90.5C 118.75,92.674 119.75,94.3406 121.5,95.5C 121.598,98.1038 122.765,100.104 125,101.5C 130.944,99.6271 134.611,95.6271 136,89.5C 137.043,86.2432 137.543,82.9099 137.5,79.5C 138.5,79.5 139.5,79.5 140.5,79.5C 141.808,92.1523 136.808,101.152 125.5,106.5 Z"/></g>
<g><path style="opacity:1" fill="#f8fafd" d="M 105.5,90.5 C 112.409,90.789 117.076,94.1223 119.5,100.5C 116.554,101.655 113.554,101.821 110.5,101C 108.269,99.853 105.935,98.853 103.5,98C 101.257,94.9291 101.923,92.4291 105.5,90.5 Z"/></g>
<g><path style="opacity:1" fill="#dc915a" d="M 118.5,90.5 C 120.25,91.6594 121.25,93.326 121.5,95.5C 119.75,94.3406 118.75,92.674 118.5,90.5 Z"/></g>
<g><path style="opacity:1" fill="#6299cd" d="M 61.5,101.5 C 61.5,101.833 61.5,102.167 61.5,102.5C 54.7377,109.929 47.071,116.262 38.5,121.5C 38.5,121.167 38.5,120.833 38.5,120.5C 42.9645,116.537 47.2978,112.37 51.5,108C 54.4645,105.19 57.7978,103.024 61.5,101.5 Z"/></g>
<g><path style="opacity:1" fill="#81a2c8" d="M 13.5,110.5 C 12.4206,112.543 10.754,113.876 8.5,114.5C 8.06178,114.565 7.72845,114.399 7.5,114C 8.717,112.352 9.55034,110.519 10,108.5C 11.1127,109.305 12.2794,109.972 13.5,110.5 Z"/></g>
<g><path style="opacity:1" fill="#f9fafb" d="M 13.5,110.5 C 14.8333,111.167 16.1667,111.833 17.5,112.5C 14.4715,115.859 11.4715,119.192 8.5,122.5C 8.5,119.833 8.5,117.167 8.5,114.5C 10.754,113.876 12.4206,112.543 13.5,110.5 Z"/></g>
<g><path style="opacity:1" fill="#6499cc" d="M 17.5,112.5 C 18.791,112.263 19.791,112.596 20.5,113.5C 16.5826,117.148 12.5826,120.815 8.5,124.5C 7.49367,124.062 7.49367,123.396 8.5,122.5C 11.4715,119.192 14.4715,115.859 17.5,112.5 Z"/></g>
<g><path style="opacity:1" fill="#f8f9fb" d="M 61.5,102.5 C 62.7736,104.993 63.4403,107.659 63.5,110.5C 54.0761,117.751 45.0761,125.584 36.5,134C 46.4376,127.92 55.4376,120.42 63.5,111.5C 64.5,113.167 65.8333,114.5 67.5,115.5C 58.2254,123.438 49.2254,131.771 40.5,140.5C 36.807,139.311 34.807,136.811 34.5,133C 35.3611,128.913 36.6944,125.08 38.5,121.5C 47.071,116.262 54.7377,109.929 61.5,102.5 Z"/></g>
<g><path style="opacity:1" fill="#f9f8f8" d="M 20.5,113.5 C 23.5,113.167 24.8333,114.5 24.5,117.5C 18.8705,121.794 13.5372,126.461 8.5,131.5C 8.5,129.167 8.5,126.833 8.5,124.5C 12.5826,120.815 16.5826,117.148 20.5,113.5 Z"/></g>
<g><path style="opacity:1" fill="#5793ca" d="M 63.5,110.5 C 63.5,110.833 63.5,111.167 63.5,111.5C 55.4376,120.42 46.4376,127.92 36.5,134C 45.0761,125.584 54.0761,117.751 63.5,110.5 Z"/></g>
<g><path style="opacity:1" fill="#6398cd" d="M 67.5,115.5 C 68.4916,115.328 69.1583,115.662 69.5,116.5C 60.5842,125.293 51.2509,133.626 41.5,141.5C 40.8333,141.5 40.5,141.167 40.5,140.5C 49.2254,131.771 58.2254,123.438 67.5,115.5 Z"/></g>
<g><path style="opacity:1" fill="#5d95ca" d="M 24.5,117.5 C 25.3382,117.842 25.6716,118.508 25.5,119.5C 20.1667,123.833 14.8333,128.167 9.5,132.5C 8.83333,132.5 8.5,132.167 8.5,131.5C 13.5372,126.461 18.8705,121.794 24.5,117.5 Z"/></g>
<g><path style="opacity:1" fill="#fbf7f4" d="M 25.5,119.5 C 25.6567,120.873 25.49,122.207 25,123.5C 21.9691,127.566 19.4691,131.9 17.5,136.5C 15.2459,137.415 13.2459,138.748 11.5,140.5C 10.6295,137.888 9.96283,135.221 9.5,132.5C 14.8333,128.167 20.1667,123.833 25.5,119.5 Z"/></g>
<g><path style="opacity:1" fill="#faf9f8" d="M 69.5,116.5 C 71.8945,117.015 74.2278,117.681 76.5,118.5C 67.0936,126.402 58.0936,134.902 49.5,144C 50.1667,144.667 50.8333,144.667 51.5,144C 60.4318,136.049 69.0985,127.882 77.5,119.5C 78.4562,123.38 78.9562,127.38 79,131.5C 74.0322,135.274 68.5322,138.107 62.5,140C 59.6026,141.715 58.2693,144.215 58.5,147.5C 55.8333,149.833 53.1667,152.167 50.5,154.5C 49.4535,148.791 46.4535,144.458 41.5,141.5C 51.2509,133.626 60.5842,125.293 69.5,116.5 Z"/></g>
<g><path style="opacity:1" fill="#5b95cb" d="M 76.5,118.5 C 77.1667,118.5 77.5,118.833 77.5,119.5C 69.0985,127.882 60.4318,136.049 51.5,144C 50.8333,144.667 50.1667,144.667 49.5,144C 58.0936,134.902 67.0936,126.402 76.5,118.5 Z"/></g>
<g><path style="opacity:1" fill="#b9d2e9" d="M 112.5,124.5 C 111.89,125.391 111.557,126.391 111.5,127.5C 109.129,130.556 105.963,132.223 102,132.5C 100.853,131.542 99.8525,131.875 99,133.5C 98.8367,131.269 100.003,129.935 102.5,129.5C 103.773,129.746 104.94,129.746 106,129.5C 107.507,128.495 108.673,127.162 109.5,125.5C 110.417,124.873 111.417,124.539 112.5,124.5 Z"/></g>
<g><path style="opacity:1" fill="#fbaa6d" d="M 146.5,135.5 C 141.833,135.5 137.167,135.5 132.5,135.5C 132.5,144.5 132.5,153.5 132.5,162.5C 131.506,153.348 131.173,144.015 131.5,134.5C 136.695,134.179 141.695,134.513 146.5,135.5 Z"/></g>
<g><path style="opacity:1" fill="#fa8832" d="M 146.5,135.5 C 147.404,136.209 147.737,137.209 147.5,138.5C 143.5,138.5 139.5,138.5 135.5,138.5C 135.5,141.167 135.5,143.833 135.5,146.5C 139.167,146.5 142.833,146.5 146.5,146.5C 146.5,147.5 146.5,148.5 146.5,149.5C 142.833,149.5 139.167,149.5 135.5,149.5C 135.5,152.833 135.5,156.167 135.5,159.5C 139.5,159.5 143.5,159.5 147.5,159.5C 147.5,160.5 147.5,161.5 147.5,162.5C 142.5,162.5 137.5,162.5 132.5,162.5C 132.5,153.5 132.5,144.5 132.5,135.5C 137.167,135.5 141.833,135.5 146.5,135.5 Z"/></g>
<g><path style="opacity:1" fill="#fb8c39" d="M 168.5,134.5 C 169.833,134.5 171.167,134.5 172.5,134.5C 169.453,143.469 166.287,152.469 163,161.5C 161.333,162.833 159.667,162.833 158,161.5C 155.56,152.847 152.727,144.347 149.5,136C 151.134,135.506 152.801,135.34 154.5,135.5C 155.97,142.742 158.137,149.742 161,156.5C 163.41,149.101 165.91,141.768 168.5,134.5 Z"/></g>
<g><path style="opacity:1" fill="#fa8730" d="M 175.5,135.5 C 180.5,135.5 185.5,135.5 190.5,135.5C 190.5,136.5 190.5,137.5 190.5,138.5C 186.5,138.5 182.5,138.5 178.5,138.5C 178.5,141.167 178.5,143.833 178.5,146.5C 182.167,146.5 185.833,146.5 189.5,146.5C 189.5,147.5 189.5,148.5 189.5,149.5C 185.833,149.5 182.167,149.5 178.5,149.5C 178.5,152.833 178.5,156.167 178.5,159.5C 182.5,159.5 186.5,159.5 190.5,159.5C 190.5,160.5 190.5,161.5 190.5,162.5C 185.5,162.5 180.5,162.5 175.5,162.5C 175.5,153.5 175.5,144.5 175.5,135.5 Z"/></g>
<g><path style="opacity:1" fill="#fa862e" d="M 211.5,154.5 C 211.783,155.289 212.283,155.956 213,156.5C 213.5,149.508 213.666,142.508 213.5,135.5C 214.5,135.5 215.5,135.5 216.5,135.5C 216.5,144.5 216.5,153.5 216.5,162.5C 214.278,162.822 212.444,162.155 211,160.5C 207,153.833 203,147.167 199,140.5C 198.5,147.826 198.334,155.159 198.5,162.5C 197.5,162.5 196.5,162.5 195.5,162.5C 195.5,153.5 195.5,144.5 195.5,135.5C 197.288,135.215 198.955,135.548 200.5,136.5C 204.194,142.517 207.86,148.517 211.5,154.5 Z"/></g>
<g><path style="opacity:1" fill="#fbab6e" d="M 216.5,135.5 C 215.5,135.5 214.5,135.5 213.5,135.5C 213.666,142.508 213.5,149.508 213,156.5C 212.283,155.956 211.783,155.289 211.5,154.5C 212.491,148.021 212.824,141.354 212.5,134.5C 214.099,134.232 215.432,134.566 216.5,135.5 Z"/></g>
<g><path style="opacity:1" fill="#fb9143" d="M 219.5,134.5 C 226.175,134.334 232.842,134.5 239.5,135C 240.337,136.011 240.67,137.178 240.5,138.5C 237.5,138.5 234.5,138.5 231.5,138.5C 231.5,146.5 231.5,154.5 231.5,162.5C 230.167,162.5 228.833,162.5 227.5,162.5C 227.5,154.5 227.5,146.5 227.5,138.5C 224.833,138.5 222.167,138.5 219.5,138.5C 219.5,137.167 219.5,135.833 219.5,134.5 Z"/></g>
<g><path style="opacity:1" fill="#fb8d3b" d="M 242.5,134.5 C 243.833,134.5 245.167,134.5 246.5,134.5C 246.334,141.508 246.5,148.508 247,155.5C 249.053,159.292 252.219,160.458 256.5,159C 257.701,158.097 258.535,156.931 259,155.5C 259.5,148.508 259.666,141.508 259.5,134.5C 260.833,134.5 262.167,134.5 263.5,134.5C 263.896,142.253 263.396,149.92 262,157.5C 256.451,164.977 250.451,165.31 244,158.5C 242.637,150.571 242.137,142.571 242.5,134.5 Z"/></g>
<g><path style="opacity:1" fill="#fa8b37" d="M 270.5,135.5 C 272.467,135.261 274.301,135.594 276,136.5C 278.173,142.843 280.34,149.177 282.5,155.5C 285.151,149.235 287.651,142.902 290,136.5C 291.699,135.594 293.533,135.261 295.5,135.5C 296.166,144.485 296.499,153.485 296.5,162.5C 295.5,162.5 294.5,162.5 293.5,162.5C 292.978,155.174 292.478,147.841 292,140.5C 288.797,147.608 286.297,154.941 284.5,162.5C 283.167,162.5 281.833,162.5 280.5,162.5C 278.84,155.686 276.673,149.019 274,142.5C 273.048,149.136 272.548,155.803 272.5,162.5C 271.167,162.5 269.833,162.5 268.5,162.5C 269.309,153.514 269.975,144.514 270.5,135.5 Z"/></g>
<g><path style="opacity:1" fill="#5d94ca" d="M 17.5,136.5 C 17.5,137.5 17.5,138.5 17.5,139.5C 15.5659,140.11 13.8993,141.11 12.5,142.5C 11.6618,142.158 11.3284,141.492 11.5,140.5C 13.2459,138.748 15.2459,137.415 17.5,136.5 Z"/></g>
<g><path style="opacity:1" fill="#5c94ca" d="M 58.5,147.5 C 59.3382,147.842 59.6716,148.508 59.5,149.5C 56.8103,152.185 53.8103,154.518 50.5,156.5C 50.5,155.833 50.5,155.167 50.5,154.5C 53.1667,152.167 55.8333,149.833 58.5,147.5 Z"/></g>
<g><path style="opacity:1" fill="#f9f8f9" d="M 91.5,152.5 C 80.6154,159.713 70.9488,168.38 62.5,178.5C 62.5654,178.938 62.3988,179.272 62,179.5C 58.8826,178.696 55.716,178.03 52.5,177.5C 59.9499,170.915 67.2833,164.082 74.5,157C 74.2716,156.601 73.9382,156.435 73.5,156.5C 78.7202,155.141 83.5536,152.808 88,149.5C 89.6424,149.978 90.8091,150.978 91.5,152.5 Z"/></g>
<g><path style="opacity:1" fill="#ece4e1" d="M 17.5,139.5 C 16.9492,142.807 16.6159,146.14 16.5,149.5C 19.9831,151.67 23.6498,153.337 27.5,154.5C 26.448,154.351 25.448,154.517 24.5,155C 23.8366,156.518 22.8366,157.685 21.5,158.5C 19.8685,155.402 17.8685,152.569 15.5,150C 14.3944,147.511 13.3944,145.011 12.5,142.5C 13.8993,141.11 15.5659,140.11 17.5,139.5 Z"/></g>
<g><path style="opacity:1" fill="#faf9f9" d="M 59.5,149.5 C 61.0627,150.945 62.396,152.611 63.5,154.5C 56.2012,160.464 49.2012,166.797 42.5,173.5C 39.605,172.601 36.9384,171.267 34.5,169.5C 36.8333,167.5 39.1667,165.5 41.5,163.5C 47.1878,164.469 50.1878,162.136 50.5,156.5C 53.8103,154.518 56.8103,152.185 59.5,149.5 Z"/></g>
<g><path style="opacity:1" fill="#fbfbfc" d="M 91.5,152.5 C 93.3998,154.619 95.0664,156.953 96.5,159.5C 88.5779,164.753 81.5779,171.086 75.5,178.5C 71.8333,178.5 68.1667,178.5 64.5,178.5C 70.3451,172.492 76.6784,166.992 83.5,162C 86.7768,159.234 89.4434,156.067 91.5,152.5 Z"/></g>
<g><path style="opacity:1" fill="#6498cb" d="M 27.5,154.5 C 27.8333,154.5 28.1667,154.5 28.5,154.5C 26.6397,155.939 24.973,157.605 23.5,159.5C 22.5084,159.672 21.8417,159.338 21.5,158.5C 22.8366,157.685 23.8366,156.518 24.5,155C 25.448,154.517 26.448,154.351 27.5,154.5 Z"/></g>
<g><path style="opacity:1" fill="#f9f7f6" d="M 28.5,154.5 C 30.2303,155.026 31.5637,156.026 32.5,157.5C 30.823,159.54 29.1563,161.54 27.5,163.5C 25.8333,162.5 24.5,161.167 23.5,159.5C 24.973,157.605 26.6397,155.939 28.5,154.5 Z"/></g>
<g><path style="opacity:1" fill="#649ace" d="M 91.5,152.5 C 89.4434,156.067 86.7768,159.234 83.5,162C 76.6784,166.992 70.3451,172.492 64.5,178.5C 63.8333,178.5 63.1667,178.5 62.5,178.5C 70.9488,168.38 80.6154,159.713 91.5,152.5 Z"/></g>
<g><path style="opacity:1" fill="#5b94ca" d="M 63.5,154.5 C 64.1667,154.5 64.5,154.833 64.5,155.5C 57.8333,161.833 51.1667,168.167 44.5,174.5C 43.5084,174.672 42.8417,174.338 42.5,173.5C 49.2012,166.797 56.2012,160.464 63.5,154.5 Z"/></g>
<g><path style="opacity:1" fill="#fbfafb" d="M 64.5,155.5 C 66.1417,157.081 68.1417,157.747 70.5,157.5C 63.8597,163.806 57.193,170.139 50.5,176.5C 48.2143,176.405 46.2143,175.738 44.5,174.5C 51.1667,168.167 57.8333,161.833 64.5,155.5 Z"/></g>
<g><path style="opacity:1" fill="#6097cb" d="M 73.5,156.5 C 73.9382,156.435 74.2716,156.601 74.5,157C 67.2833,164.082 59.9499,170.915 52.5,177.5C 51.5084,177.672 50.8417,177.338 50.5,176.5C 57.193,170.139 63.8597,163.806 70.5,157.5C 71.391,156.89 72.391,156.557 73.5,156.5 Z"/></g>
<g><path style="opacity:1" fill="#6198cc" d="M 32.5,157.5 C 33.5,157.833 34.1667,158.5 34.5,159.5C 32.7036,161.9 30.3702,163.567 27.5,164.5C 27.5,164.167 27.5,163.833 27.5,163.5C 29.1563,161.54 30.823,159.54 32.5,157.5 Z"/></g>
<g><path style="opacity:1" fill="#f5efeb" d="M 34.5,159.5 C 35.8333,160.5 37.1667,161.5 38.5,162.5C 36.4202,164.573 34.7536,166.907 33.5,169.5C 33.5654,169.938 33.3988,170.272 33,170.5C 32.6667,169.5 32.3333,168.5 32,167.5C 29.7462,166.535 28.2462,165.535 27.5,164.5C 30.3702,163.567 32.7036,161.9 34.5,159.5 Z"/></g>
<g><path style="opacity:1" fill="#f7f6f7" d="M 96.5,159.5 C 98.1667,161.833 100.167,163.833 102.5,165.5C 100.692,165.491 99.0249,165.991 97.5,167C 95.2968,169.372 92.9635,171.539 90.5,173.5C 86.5786,175.029 82.5786,176.363 78.5,177.5C 81.6419,174.531 84.9753,171.698 88.5,169C 91.7768,166.234 94.4434,163.067 96.5,159.5 Z"/></g>
<g><path style="opacity:1" fill="#5792ca" d="M 96.5,159.5 C 94.4434,163.067 91.7768,166.234 88.5,169C 84.9753,171.698 81.6419,174.531 78.5,177.5C 77.609,178.11 76.609,178.443 75.5,178.5C 81.5779,171.086 88.5779,164.753 96.5,159.5 Z"/></g>
<g><path style="opacity:1" fill="#6795c4" d="M 38.5,162.5 C 39.791,162.263 40.791,162.596 41.5,163.5C 39.1667,165.5 36.8333,167.5 34.5,169.5C 34.1667,169.5 33.8333,169.5 33.5,169.5C 34.7536,166.907 36.4202,164.573 38.5,162.5 Z"/></g>
<g><path style="opacity:1" fill="#6591c0" d="M 102.5,165.5 C 99.0191,169.17 95.1858,172.503 91,175.5C 90.5357,174.906 90.369,174.239 90.5,173.5C 92.9635,171.539 95.2968,169.372 97.5,167C 99.0249,165.991 100.692,165.491 102.5,165.5 Z"/></g>
</svg>
